name sv07_filtered_grf.mot
datacolumns 37
datarows 15
range 0.480500 0.487500
endheader
time	1_ground_force_vx	1_ground_force_vy	1_ground_force_vz	1_ground_force_px	1_ground_force_py	1_ground_force_pz	1_ground_torque_x	1_ground_torque_y	1_ground_torque_z	2_ground_force_vx	2_ground_force_vy	2_ground_force_vz	2_ground_force_px	2_ground_force_py	2_ground_force_pz	2_ground_torque_x	2_ground_torque_y	2_ground_torque_z	3_ground_force_vx	3_ground_force_vy	3_ground_force_vz	3_ground_force_px	3_ground_force_py	3_ground_force_pz	3_ground_torque_x	3_ground_torque_y	3_ground_torque_z	4_ground_force_vx	4_ground_force_vy	4_ground_force_vz	4_ground_force_px	4_ground_force_py	4_ground_force_pz	4_ground_torque_x	4_ground_torque_y	4_ground_torque_z
            0.480500	            0.000000	            0.000000	           -0.000000	            0.450000	            0.000000	            0.900000	           -0.000000	           -0.000000	           -0.000000	            0.000000	           -0.000000	           -0.000000	           -0.153622	            0.000000	            0.213522	           -0.000000	            0.000000	           -0.000000	           35.627258	           97.069864	            1.325507	            0.379966	            1.020554	            1.096754	           -1.782779	           -4.857353	           -0.066328	          -31.552227	          218.544675	           68.399888	           -0.491229	            1.018490	            1.099100	           -1.435826	            9.945166	            3.112628
            0.481000	            0.000000	            0.000000	           -0.000000	            0.450000	            0.000000	            0.900000	           -0.000000	           -0.000000	           -0.000000	            0.000000	           -0.000000	           -0.000000	           -0.153622	            0.000000	            0.213522	           -0.000000	            0.000000	           -0.000000	           35.513961	           98.549955	            1.694255	            0.379958	            1.020541	            1.096751	           -1.785610	           -4.955004	           -0.085186	          -31.828359	          219.218308	           68.584010	           -0.491225	            1.018483	            1.099105	           -1.449062	            9.980437	            3.122451
            0.481500	            0.000000	            0.000000	           -0.000000	            0.450000	            0.000000	            0.900000	           -0.000000	           -0.000000	           -0.000000	            0.000000	           -0.000000	           -0.000000	           -0.153622	            0.000000	            0.213522	           -0.000000	            0.000000	           -0.000000	           35.384703	          100.073457	            2.091357	            0.379950	            1.020527	            1.096749	           -1.787548	           -5.055465	           -0.105650	          -32.103137	          219.906062	           68.769265	           -0.491221	            1.018475	            1.099110	           -1.462259	           10.016453	            3.132356
            0.482000	            0.000000	            0.000000	           -0.000000	            0.450000	            0.000000	            0.900000	           -0.000000	           -0.000000	           -0.000000	            0.000000	           -0.000000	           -0.000000	           -0.153622	            0.000000	            0.213522	           -0.000000	            0.000000	           -0.000000	           35.238676	          101.638431	            2.518270	            0.379942	            1.020514	            1.096746	           -1.788508	           -5.158570	           -0.127813	          -32.376636	          220.607088	           68.955954	           -0.491218	            1.018467	            1.099115	           -1.475418	           10.053166	            3.142354
            0.482500	            0.000000	            0.000000	           -0.000000	            0.450000	            0.000000	            0.900000	           -0.000000	           -0.000000	            0.000000	            0.000000	           -0.000000	           -0.000000	           -0.153622	            0.000000	            0.213522	           -0.000000	            0.000000	           -0.000000	           35.075066	          103.242801	            2.976447	            0.379934	            1.020500	            1.096744	           -1.788408	           -5.264145	           -0.151763	          -32.648921	          221.320527	           69.144380	           -0.491214	            1.018460	            1.099120	           -1.488542	           10.090530	            3.152457
            0.483000	            0.000000	            0.000000	           -0.000000	            0.450000	            0.000000	            0.900000	            0.000000	           -0.000000	            0.000000	            0.000000	           -0.000000	           -0.000000	           -0.153622	            0.000000	            0.213522	           -0.000000	            0.000000	           -0.000000	           34.893019	          104.884313	            3.469358	            0.379927	            1.020485	            1.096741	           -1.787163	           -5.372003	           -0.177695	          -32.920749	          222.044711	           69.337079	           -0.491215	            1.018458	            1.099125	           -1.501663	           10.128457	            3.162776
            0.483500	            0.000000	            0.000000	           -0.000000	            0.450000	            0.000000	            0.900000	            0.000000	           -0.000000	            0.000000	            0.000000	           -0.000000	           -0.000000	           -0.153622	            0.000000	            0.213522	           -0.000000	            0.000000	           -0.000000	           34.691766	          106.560690	            3.996413	            0.379921	            1.020471	            1.096737	           -1.784698	           -5.481954	           -0.205593	          -33.191449	          222.779566	           69.532142	           -0.491216	            1.018456	            1.099129	           -1.514750	           10.166934	            3.173220
            0.484000	            0.000000	            0.000000	           -0.000000	            0.450000	            0.000000	            0.900000	            0.000000	           -0.000000	            0.000000	            0.000000	           -0.000000	           -0.000000	           -0.153622	            0.000000	            0.213522	           -0.000000	            0.000000	           -0.000000	           34.470518	          108.269511	            4.558965	            0.379914	            1.020457	            1.096734	           -1.780937	           -5.593801	           -0.235541	          -33.461038	          223.524219	           69.729874	           -0.491216	            1.018454	            1.099134	           -1.527800	           10.205906	            3.183801
            0.484500	            0.000000	            0.000000	           -0.000000	            0.450000	            0.000000	            0.900000	            0.000000	           -0.000000	            0.000000	            0.000000	           -0.000000	           -0.000000	           -0.153622	            0.000000	            0.213522	           -0.000000	            0.000000	           -0.000000	           34.228504	          110.008265	            5.158305	            0.379908	            1.020442	            1.096730	           -1.775810	           -5.707340	           -0.267618	          -33.729514	          224.277796	           69.930579	           -0.491217	            1.018452	            1.099139	           -1.540811	           10.245321	            3.194526
            0.485000	            0.000000	           -0.000000	           -0.000000	            0.450000	            0.000000	            0.900000	            0.000000	           -0.000000	            0.000000	            0.000000	           -0.000000	           -0.000000	           -0.153622	            0.000000	            0.213522	           -0.000000	            0.000000	           -0.000000	           33.964980	          111.774354	            5.795646	            0.379901	            1.020428	            1.096727	           -1.769247	           -5.822364	           -0.301897	          -33.996852	          225.039429	           70.134557	           -0.491218	            1.018450	            1.099143	           -1.553780	           10.285123	            3.205405
            0.485500	            0.000000	           -0.000000	           -0.000000	            0.450000	            0.000000	            0.900000	            0.000000	           -0.000000	            0.000000	            0.000000	           -0.000000	           -0.000000	           -0.153622	            0.000000	            0.213522	           -0.000000	            0.000000	           -0.000000	           33.679152	          113.565029	            6.473916	            0.379896	            1.020412	            1.096723	           -1.761184	           -5.938655	           -0.338540	          -34.264223	          225.806660	           70.346624	           -0.491224	            1.018450	            1.099146	           -1.566758	           10.325183	            3.216654
            0.486000	            0.000000	           -0.000000	           -0.000000	            0.450000	            0.000000	            0.900000	            0.000000	           -0.000000	            0.000000	            0.000000	           -0.000000	           -0.000000	           -0.153622	            0.000000	            0.213522	           -0.000000	            0.000000	           -0.000000	           33.370392	          115.377617	            7.192367	            0.379890	            1.020397	            1.096720	           -1.751563	           -6.056003	           -0.377517	          -34.530339	          226.580216	           70.562575	           -0.491230	            1.018451	            1.099148	           -1.579683	           10.365517	            3.228073
            0.486500	            0.000000	           -0.000000	           -0.000000	            0.450000	            0.000000	            0.900000	            0.000000	           -0.000000	            0.000000	            0.000000	           -0.000000	           -0.000000	           -0.153622	            0.000000	            0.213522	           -0.000000	            0.000000	           -0.000000	           33.038046	          117.209328	            7.951902	            0.379885	            1.020382	            1.096716	           -1.740333	           -6.174193	           -0.418879	          -34.795100	          227.359251	           70.782693	           -0.491236	            1.018451	            1.099151	           -1.592546	           10.406065	            3.239672
            0.487000	            0.000000	           -0.000000	           -0.000000	            0.450000	            0.000000	            0.900000	            0.000000	           -0.000000	            0.000000	            0.000000	           -0.000000	           -0.000000	           -0.153622	            0.000000	            0.213522	            0.000000	            0.000000	           -0.000000	           32.681497	          119.057326	            8.753291	            0.379879	            1.020367	            1.096712	           -1.727444	           -6.293008	           -0.462672	          -35.058373	          228.142930	           71.007252	           -0.491241	            1.018452	            1.099153	           -1.605339	           10.446769	            3.251455
            0.487500	            0.000000	           -0.000000	           -0.000000	            0.450000	            0.000000	            0.900000	            0.000000	           -0.000000	            0.000000	            0.000000	           -0.000000	           -0.000000	           -0.153622	            0.000000	            0.213522	            0.000000	            0.000000	           -0.000000	           32.300169	          120.918736	            9.597169	            0.379873	            1.020352	            1.096709	           -1.712854	           -6.412230	           -0.508931	          -35.319999	          228.930430	           71.236519	           -0.491247	            1.018452	            1.099155	           -1.618050	           10.487569	            3.263428
